<svg width="1776" height="1765" viewBox="0 0 1776 1765" fill="none" xmlns="http://www.w3.org/2000/svg">
<rect x="1" y="1695" width="1774" height="70" fill="white"/>
<rect x="68.7988" y="1593" width="1638.4" height="70" fill="white"/>
<path d="M268.373 758.971L159.442 693H435.016L326.085 758.971V1526.16L436.187 1593H157.999L268.373 1526.16V758.971Z" fill="white"/>
<path d="M628.163 758.971L519.232 693H794.806L685.875 758.971V1526.16L795.977 1593H517.789L628.163 1526.16V758.971Z" fill="white"/>
<path d="M1089.03 758.971L980.097 693H1255.67L1146.74 758.971V1526.16L1256.84 1593H978.654L1089.03 1526.16V758.971Z" fill="white"/>
<path d="M1450.67 758.971L1341.74 693H1617.32L1508.38 758.971V1526.16L1618.49 1593H1340.3L1450.67 1526.16V758.971Z" fill="white"/>
<path fill-rule="evenodd" clip-rule="evenodd" d="M1775.47 693L886.049 0L0.533203 693H1775.47ZM1622.84 642L886.049 68.5L161.935 642H1622.84Z" fill="white"/>
</svg>
