<svg width="1774" height="1733" viewBox="0 0 1774 1733" fill="none" xmlns="http://www.w3.org/2000/svg">
<rect x="0.000976562" y="1663" width="1774" height="70" fill="white"/>
<rect x="67.7998" y="1593" width="1638.4" height="70" fill="white"/>
<path d="M1256 833L1059.37 693H1703.26L1506 833V1451L1706 1593H1056L1256 1451V833Z" fill="white"/>
<path d="M762 833L565.371 693H1209.26L1012 833V1451L1212 1593H562L762 1451V833Z" fill="white"/>
<path d="M268.001 833L71.3721 693H715.263L518.001 833V1451L718.001 1593H68.001L268.001 1451V833Z" fill="white"/>
<path fill-rule="evenodd" clip-rule="evenodd" d="M1774 693L887 0L0 693H1774ZM1463.7 578L887 115L311.303 578H1463.7Z" fill="white"/>
</svg>
