<svg width="3234" height="214" viewBox="0 0 3234 214" fill="none" xmlns="http://www.w3.org/2000/svg">
<path fill-rule="evenodd" clip-rule="evenodd" d="M0 0V176V214H33V27.5H225V176H121V115H164V88H92.5V214H252.5V115H318V214H487.5V88H410.5V115H455V175.5H345.5V27.5H542.5V214H805.5V115H867.5V214H1002H1091H1128V27.5H1320V176H1216V115H1259V88H1187.5V214H1347.5V115H1413V214H1582.5V88H1505.5V115H1550V175.5H1440.5V27.5H1637.5V214H1900.5V115H1962.5V214H2109H2186H2235V27.5H2427V176H2323V115H2366V88H2294.5V214H2454.5V115H2520V214H2689.5V88H2612.5V115H2657V175.5H2547.5V27.5H2744.5V214H3007.5V115H3069.5V214H3233.5V175.5H3101.5V28H3206V82.5H3155.5V115H3233.5V0H3069.5V87.5H3007.5V0H2838V115H2915.5V87.5H2865V22.5H2980.5V175.5H2777.5V0H2520V88H2454.5V0H2202V176H2186V175.5H1994.5V28H2099V82.5H2048.5V115H2126.5V0H1962.5V87.5H1900.5V0H1731V115H1808.5V87.5H1758V22.5H1873.5V175.5H1670.5V0H1413V88H1347.5V0H1095V176H1091V175.5H899.5V28H1004V82.5H953.5V115H1031.5V0H867.5V87.5H805.5V0H636V115H713.5V87.5H663V22.5H778.5V175.5H575.5V0H318V88H252.5V0H0Z" fill="white"/>
</svg>
