<svg width="2035" height="214" viewBox="0 0 2035 214" fill="none" xmlns="http://www.w3.org/2000/svg">
<path fill-rule="evenodd" clip-rule="evenodd" d="M0.5 0H160.5V88H226V0H483.5V175.5H686.5V22.5H571V87.5H621.5V115H544V0H713.5V87.5H775.5V0H939.5V115H861.5V82.5H912V28H807.5V175.5H999V176H1003V0H1255.5V88H1321V0H1578.5V175.5H1781.5V22.5H1666V87.5H1716.5V115H1639V0H1808.5V87.5H1870.5V0H2034.5V115H1956.5V82.5H2007V28H1902.5V175.5H2034.5V214H1870.5V115H1808.5V214H1545.5V27.5H1348.5V175.5H1458V115H1413.5V88H1490.5V214H1321V115H1255.5V214H1095.5V88H1167V115H1124V176H1228V27.5H1036V214H999H910H775.5V115H713.5V214H450.5V27.5H253.5V175.5H363V115H318.5V88H395.5V214H226V115H160.5V214H0.5V88H72V115H29V176H133V27.5H0.5V0Z" fill="white"/>
</svg>
