<svg width="24" height="24" viewBox="0 0 24 24" fill="none" xmlns="http://www.w3.org/2000/svg">
<path d="M1.5 20L0.502475 19.9297L0.427027 21H1.5V20ZM13.5 20V21H14.573L14.4975 19.9297L13.5 20ZM22.5 20V21H23.573L23.4975 19.9297L22.5 20ZM9.5 7C9.5 8.10457 8.60457 9 7.5 9V11C9.70914 11 11.5 9.20914 11.5 7H9.5ZM7.5 9C6.39543 9 5.5 8.10457 5.5 7H3.5C3.5 9.20914 5.29086 11 7.5 11V9ZM5.5 7C5.5 5.89543 6.39543 5 7.5 5V3C5.29086 3 3.5 4.79086 3.5 7H5.5ZM7.5 5C8.60457 5 9.5 5.89543 9.5 7H11.5C11.5 4.79086 9.70914 3 7.5 3V5ZM18.5 7C18.5 8.10457 17.6046 9 16.5 9V11C18.7091 11 20.5 9.20914 20.5 7H18.5ZM16.5 9C15.3954 9 14.5 8.10457 14.5 7H12.5C12.5 9.20914 14.2909 11 16.5 11V9ZM14.5 7C14.5 5.89543 15.3954 5 16.5 5V3C14.2909 3 12.5 4.79086 12.5 7H14.5ZM16.5 5C17.6046 5 18.5 5.89543 18.5 7H20.5C20.5 4.79086 18.7091 3 16.5 3V5ZM1.5 21H13.5V19H1.5V21ZM2.49752 20.0703C2.79785 15.8098 5.29963 14 7.5 14C9.70037 14 12.2021 15.8098 12.5025 20.0703L14.4975 19.9297C14.1399 14.8568 10.9707 12 7.5 12C4.02933 12 0.860067 14.8568 0.502475 19.9297L2.49752 20.0703ZM14.6994 14.4052C16.0604 13.7662 17.6363 13.8808 18.9286 14.7649C20.2142 15.6445 21.3113 17.3578 21.5025 20.0703L23.4975 19.9297C23.2719 16.7283 21.9393 14.4014 20.0579 13.1143C18.1833 11.8317 15.8548 11.6533 13.8494 12.5948L14.6994 14.4052ZM17 21H22.5V19H17V21Z" fill="white"/>
</svg>
