<svg width="2100" height="1955" viewBox="0 0 2100 1955" fill="none" xmlns="http://www.w3.org/2000/svg">
<path d="M210 1755H1890" stroke="black" stroke-width="40"/>
<path d="M110 1845H2000" stroke="black" stroke-width="40"/>
<path d="M0 1935H2100" stroke="black" stroke-width="40"/>
<path d="M1200 780.5L1124.5 705H1315.5L1240 780.5V1658.5L1316.31 1735H1123.5L1200 1658.5V780.5Z" fill="black"/>
<path d="M350.5 780.5L275 705H466L390.5 780.5V1658.5L466.812 1735H274L350.5 1658.5V780.5Z" fill="black"/>
<path d="M600.5 780.5L525 705H716L640.5 780.5V1658.5L716.812 1735H524L600.5 1658.5V780.5Z" fill="black"/>
<path d="M850.5 780.5L775 705H966L890.5 780.5V1658.5L966.812 1735H774L850.5 1658.5V780.5Z" fill="black"/>
<path d="M1450.5 780.5L1375 705H1566L1490.5 780.5V1658.5L1566.81 1735H1374L1450.5 1658.5V780.5Z" fill="black"/>
<path d="M1710.5 780.5L1635 705H1826L1750.5 780.5V1658.5L1826.81 1735H1634L1710.5 1658.5V780.5Z" fill="black"/>
<path d="M160 685H1940" stroke="black" stroke-width="40" stroke-linecap="round"/>
<path d="M160 685L1047.91 25L1940 685" stroke="black" stroke-width="40" stroke-linecap="round"/>
</svg>
