<svg width="2100" height="1943" viewBox="0 0 2100 1943" fill="none" xmlns="http://www.w3.org/2000/svg">
<rect y="1903" width="2100" height="40" fill="white"/>
<rect x="110" y="1813" width="1890" height="40" fill="white"/>
<rect x="210" y="1723" width="1680" height="40" fill="white"/>
<path d="M350.5 768.5L275 693H466L390.5 768.5V1646.5L466.812 1723H274L350.5 1646.5V768.5Z" fill="white"/>
<path d="M600.5 768.5L525 693H716L640.5 768.5V1646.5L716.812 1723H524L600.5 1646.5V768.5Z" fill="white"/>
<path d="M850.5 768.5L775 693H966L890.5 768.5V1646.5L966.812 1723H774L850.5 1646.5V768.5Z" fill="white"/>
<path d="M1200 768.5L1124.5 693H1315.5L1240 768.5V1646.5L1316.31 1723H1123.5L1200 1646.5V768.5Z" fill="white"/>
<path d="M1450.5 768.5L1375 693H1566L1490.5 768.5V1646.5L1566.81 1723H1374L1450.5 1646.5V768.5Z" fill="white"/>
<path d="M1710.5 768.5L1635 693H1826L1750.5 768.5V1646.5L1826.81 1723H1634L1710.5 1646.5V768.5Z" fill="white"/>
<path fill-rule="evenodd" clip-rule="evenodd" d="M1960 693L1048 0L140 693H1960ZM1879 665L1048 50L220.5 665H1879Z" fill="white"/>
</svg>
