<svg width="24" height="24" viewBox="0 0 24 24" fill="none" xmlns="http://www.w3.org/2000/svg">
    <g clip-path="url(#clip0_19_71)">
        <path
            d="M21.5219 13.0805C21.5808 13.0092 21.6319 12.9319 21.6745 12.8498L21.7392 12.7873C21.786 12.6755 21.812 12.5561 21.8161 12.435C21.8145 12.3186 21.7926 12.2033 21.7513 12.0944L21.6888 12.0297C21.6754 11.9145 21.6389 11.8032 21.5813 11.7025L21.5466 11.6665C21.4884 11.5845 21.4181 11.5117 21.3382 11.4507L4.51832 2.67054C4.33204 2.5723 4.1195 2.53538 3.911 2.56505C3.7025 2.59471 3.50869 2.68944 3.3572 2.83574C3.2057 2.98203 3.10427 3.17242 3.06734 3.37975C3.03042 3.58709 3.0599 3.80079 3.15157 3.99039L7.03409 12.0992L2.87095 20.0675C2.77271 20.2538 2.73579 20.4664 2.76546 20.6749C2.79512 20.8834 2.88985 21.0772 3.03615 21.2287C3.18244 21.3802 3.37283 21.4816 3.58016 21.5185C3.7875 21.5554 4.0012 21.526 4.1908 21.4343L21.3069 13.2465C21.3858 13.2012 21.4581 13.1454 21.5219 13.0805ZM16.6097 11.2904L8.73377 11.1529L6.2025 5.85411L16.6097 11.2904ZM5.98431 18.3539L8.69897 13.1466L16.5749 13.2841L5.98431 18.3539Z"
            fill="white" />
    </g>
    <defs>
        <clipPath id="clip0_19_71">
            <rect width="24" height="24" fill="white" />
        </clipPath>
    </defs>
</svg>